<svg width="512" height="512" viewBox="0 0 512 512" fill="none" xmlns="http://www.w3.org/2000/svg">
  <!-- Background circle -->
  <circle cx="256" cy="256" r="256" fill="#3B82F6"/>

  <!-- Document/Portfolio icon -->
  <path d="M160 120C160 106.745 170.745 96 184 96H280L376 192V392C376 405.255 365.255 416 352 416H184C170.745 416 160 405.255 160 392V120Z" fill="white"/>

  <!-- Folded corner -->
  <path d="M280 96V168C280 181.255 290.745 192 304 192H376L280 96Z" fill="#E0E7FF"/>

  <!-- Lines representing text -->
  <rect x="200" y="240" width="176" height="12" rx="6" fill="#3B82F6"/>
  <rect x="200" y="272" width="112" height="12" rx="6" fill="#3B82F6"/>
  <rect x="200" y="304" width="144" height="12" rx="6" fill="#3B82F6"/>
  <rect x="200" y="336" width="96" height="12" rx="6" fill="#3B82F6"/>
</svg>
